#!OML:ASF E:/inclinewalkrobotboard/Project1/Captureday1/Session1/subject1.ASF
:FULLY-SPECIFIED
:DEGREES
188
root 0 0 0 -5.025410162830698 -1.918085140268344 -5.494976316119829
lowerback 2.9357602116958317 1.276582904445294 -2.9140017614497884
upperback -1.1210562848653143 1.5266526320772074 -1.9178637025614251
thorax -2.8484809145133037 0.799610788488621 -0.37188264449903435
lowerneck -13.307335418723618 -6.466931191202153 -9.196050749563405
upperneck 7.712337189084222 -8.780159895363656 10.5159020335116
head 5.6539681528256995 -3.8904098423846887 4.249653468944033
rclavicle -1.0322697856809816E-14 3.8659745233944533E-16
rhumerus 4.155000048043531 -12.545684623997674 -67.19369018097457
rradius 18.617826141003967
rwrist 57.67131983270001
rhand -7.43085845658355 21.744861954093142
rfingers 7.125019999999914
rthumb 18.462626697924158 -7.951641497667147
lclavicle -6.896619886730161E-15 8.193227215874066E-15
lhumerus -27.006959037620653 0.4537235764792982 80.7450466842433
lradius 41.52775660398878
lwrist -36.47597259889844
lhand -9.049510700802106 14.869984469238009
lfingers 7.038103239736244
lthumb 16.564497594219354 73.3454209527525
rfemur -14.333166847884016 0.6664813082678585 22.78460613582982
rtibia 71.51614305513161
rfoot 10.53105463908772 -2.233531541420305
rtoes 14.62506039020055
lfemur 5.123569391664846 -2.4718364806356985 -30.32547260239796
ltibia 21.278322000147188
lfoot -19.819978733702943 2.4031179699434766
ltoes 5.004215504344145
189
root 0 0 0 -6.4757191870259385 -6.049291499644831 -4.783795193174525
lowerback 2.5307669470945777 1.17666823686301 -3.1760871421581207
upperback -1.3435626236400249 1.3842222945917455 -1.9296456650239153
thorax -2.832619438852478 0.7248395075601406 -0.22621292784575114
lowerneck -13.826582474357323 -6.2207862263709774 -9.285919880732807
upperneck 7.316543768704 -8.48401520111724 10.703708712196025
head 5.585349328901918 -3.7307550242633996 4.332266751399968
rclavicle -1.0342112916258996E-14 4.1008469760080158E-16
rhumerus 4.323029560728629 -12.541453463905425 -67.0664890696042
rradius 18.537376199295785
rwrist 57.65595691576735
rhand -7.4116755670325 21.705848059563653
rfingers 7.125019999999915
rthumb 18.480316057123282 -7.991741800347192
lclavicle -7.09384864759296E-15 8.010491912633144E-15
lhumerus -27.308586888162438 -0.46932576547282423 81.2553439459497
lradius 42.371063917423925
lwrist -36.116190887210124
lhand -8.686877745462866 15.004641851415677
lfingers 7.0381702955439875
lthumb 16.912910806988638 73.96204156161693
rfemur -14.563780695594208 0.6924636356148088 22.70872636187369
rtibia 71.50829232034283
rfoot 10.294279321426949 -2.3316195552111303
rtoes 14.70739989809456
lfemur 5.872768033910015 -2.4952750847880494 -30.41823971520536
ltibia 20.95139482923127
lfoot -20.006722915962246 2.358713307860186
ltoes 4.478451968100744
190
root 0 0 0 -7.995241597415223 -10.440645478020713 -3.9750494243079317
lowerback 2.3929068713677584 1.0146048518955744 -3.4424390921302574
upperback -1.5387992335754075 1.151014780981162 -1.8954269322987143
thorax -2.9326035909466217 0.6042478775888338 -0.025068738278290398
lowerneck -14.584845799961158 -5.889438119655955 -9.269301650723161
upperneck 6.313119855597791 -8.031763329122589 10.582829697541957
head 5.3662614808777 -3.5019137988577747 4.31133532343702
rclavicle -1.0346714633239594E-14 4.3194879658361777E-16
rhumerus 4.4848277652196105 -12.562341463194938 -66.91874064646935
rradius 18.45493457668241
rwrist 57.64071490987264
rhand -7.3943209976811115 21.67128817632408
rfingers 7.125019999999915
rthumb 18.496337562719802 -8.027612866621936
lclavicle -7.215675907554095E-15 7.787457334923804E-15
lhumerus -27.59051437916729 -1.4930738048298444 81.79546868456842
lradius 43.180375088254465
lwrist -35.771922872963344
lhand -8.302222909330531 15.161073469252809
lfingers 7.038741904165961
lthumb 17.28377056905392 74.70148875196215
rfemur -14.901775732869996 0.6952349617502502 22.621946003893147
rtibia 71.50200758833549
rfoot 9.983762770586523 -2.4518766380206323
rtoes 14.735021624476525
lfemur 6.701910928478524 -2.519846342568631 -30.519543741832884
ltibia 20.631953769892483
lfoot -20.1396681220302 2.2573345601331836
ltoes 3.90658749248845
191
root 0 0 0 -10.5052732384338 -19.028822430410028 -2.4366754712162644
lowerback 2.887017473621782 0.5513110470243654 -3.6637729664326013
upperback -1.8416749327490005 0.498293795666945 -1.649360637503504
thorax -3.4629913720312677 0.27195855984708656 0.40394778105583107
lowerneck -16.60281571839618 -5.096214145837875 -8.938631180019096
upperneck 2.45749407283604 -6.815355929039624 9.533070706514538
head 4.43158239083296 -2.909883017049922 3.9908371011912136
rclavicle -1.030071933068934E-14 4.4106425193991663E-16
rhumerus 4.607770478789644 -12.67276121694705 -66.69709175014049
rradius 18.307383800003834
rwrist 57.65697918115151
rhand -7.364789767156335 21.65984142266628
rfingers 7.125019999999915
rthumb 18.524389344841797 -8.041287854025704
lclavicle -7.100095014551683E-15 7.369541736448862E-15
lhumerus -27.58095446730436 -2.724510978282794 82.23603003934731
lradius 43.43725652479432
lwrist -35.72333624074169
lhand -7.9298939871940455 15.29173587196179
lfingers 7.038686986835137
lthumb 17.639110686005992 76.12705349978575
rfemur -15.643959001655697 0.6279580454150615 22.524409085950413
rtibia 71.41073984660491
rfoot 9.266256101544979 -2.6714453726152314
rtoes 14.573799005442806
lfemur 8.232143284786138 -2.5620875738132316 -30.703896093607902
ltibia 20.17390563079204
lfoot -20.151146334080607 1.9083511505214332
ltoes 2.9030873642970896
192
root 0 0 0 -11.774864937209863 -26.55172667439237 -1.7566415209935333
lowerback 3.794754637769649 0.13614695246211017 -3.4670330565556293
upperback -1.916509142478715 -0.08222088125172622 -1.283220303669696
thorax -3.998146789935876 -0.021913391633631985 0.7178138728961665
lowerneck -17.889267327023735 -4.434158264104445 -8.619900633662864
upperneck -0.8128211346414211 -5.768503625377388 8.868790529654714
head 3.5419588862295637 -2.415280702786958 3.7891639972757662
rclavicle -1.0206443487743696E-14 3.848023354502603E-16
rhumerus 4.513594779206097 -12.788993938603484 -66.61704766000823
rradius 18.18413485047906
rwrist 57.72709726378673
rhand -7.329034578653175 21.704805865426028
rfingers 7.125019999999914
rthumb 18.559373515608108 -7.997242884839597
lclavicle -6.765974506570018E-15 6.961232031213599E-15
lhumerus -26.94525819777791 -2.8581170963525118 81.87619291265733
lradius 42.112789490084694
lwrist -36.39822346628739
lhand -7.986638123871698 15.164487616300818
lfingers 7.035594229064652
lthumb 17.571206843298846 77.14324967041125
rfemur -16.40513806276621 0.4955313963872161 22.520704924010932
rtibia 71.17630266065895
rfoot 8.514376328333729 -2.843502048002735
rtoes 14.201491441213067
lfemur 9.45553511994986 -2.594311689320091 -30.841861956545287
ltibia 19.876539468995016
lfoot -20.02728705288738 1.5322611058809352
ltoes 2.0954799900520547
193
root 0 0 0 -12.277661426739343 -33.926265258193766 -1.4833772856466108
lowerback 4.670313095738292 -0.21670125258405848 -3.0324580785588315
upperback -1.8102685116071293 -0.5651863262788747 -0.8420192769624283
thorax -4.346126532402902 -0.26877700235856167 0.9712211634010406
lowerneck -18.329479631398566 -3.821976809672451 -8.335121992651045
upperneck -2.1794411300984464 -4.864298986406803 8.808632565314578
head 3.072214119654636 -1.998392168200754 3.77723337030696
rclavicle -1.0063875629838275E-14 2.5732544273781476E-16
rhumerus 4.161647551335065 -12.844519316856738 -66.74345594612412
rradius 18.04213961990274
rwrist 57.88395246061721
rhand -7.2877952863141715 21.77865556443099
rfingers 7.125019999999913
rthumb 18.600515639185005 -7.922865025889745
lclavicle -6.2502682139301745E-15 6.386246112053244E-15
lhumerus -26.143398797424382 -2.745362987793026 81.30734324902072
lradius 40.18419550663478
lwrist -37.29800037692837
lhand -8.18286239969455 14.991234295467118
lfingers 7.031894712493771
lthumb 17.366967310670393 78.16779804172677
rfemur -17.198855001404482 0.34947431394111383 22.65645088244993
rtibia 70.4794254347516
rfoot 7.605797661919109 -2.9974911534186255
rtoes 13.703065836268403
lfemur 10.577508174676593 -2.614104175062489 -30.94235126269119
ltibia 19.64391852347791
lfoot -19.834107924266455 1.0995520452503564
ltoes 1.2307163451269112
194
root 0 0 0 -12.320722819129816 -39.25168951097269 -1.1674184380946746
lowerback 5.101857499430051 -0.4739968978031892 -2.6093972123559004
upperback -1.6954217988038613 -0.8936340190676696 -0.48248878280299745
thorax -4.45628154277167 -0.4377605533707645 1.1361711153705831
lowerneck -18.31498722871271 -3.400708097477737 -8.154019439345799
upperneck -2.2437806120568595 -4.287029877763276 8.916600819193395
head 2.9575762143454565 -1.7374259373953678 3.8180697163039143
rclavicle -9.929872581193377E-15 9.517959336098988E-17
rhumerus 3.6385738859823142 -12.794794340855885 -67.02963410119284
rradius 17.947409056769033
rwrist 58.038691278534316
rhand -7.259942895543695 21.835921556509792
rfingers 7.125019999999911
rthumb 18.628796253858432 -7.86385247812602
lclavicle -5.671999125348024E-15 5.7914495164752456E-15
lhumerus -25.652008924490527 -2.793612262546027 80.99562353239018
lradius 38.655463050960115
lwrist -37.904817178603906
lhand -8.387117783704516 14.927618868292422
lfingers 7.030358866811255
lthumb 17.16376217298564 78.90373336791993
rfemur -17.80477621857933 0.23713878334535998 22.897202153020633
rtibia 69.46926933325665
rfoot 6.866278882113818 -3.0660487347271186
rtoes 13.262806075848411
lfemur 11.388735513926813 -2.613619735759649 -30.990202280756336
ltibia 19.51245821365834
lfoot -19.649438973467863 0.7078010359573792
ltoes 0.4398791761783496
195
root 0 0 0 -12.051607902786149 -42.548818355411484 -0.8765131537449471
lowerback 5.161949891351353 -0.6589634321033992 -2.237206161728217
upperback -1.6365628850565135 -1.1061975692284371 -0.2280506280868097
thorax -4.426685784224867 -0.5463835037018667 1.2105489689569504
lowerneck -18.119261216997405 -3.1725618594301275 -8.08944758297409
upperneck -1.9127879112454842 -3.995783485457531 9.00497495897702
head 2.9741700289650015 -1.611766105910758 3.8564218204081144
rclavicle -9.816311911337699E-15 -2.5105490299051698E-17
rhumerus 3.1551533964911056 -12.692335048004752 -67.31082990884443
rradius 17.900059095307448
rwrist 58.136329428131845
rhand -7.244388972184982 21.860524827143244
rfingers 7.12501999999991
rthumb 18.644747645056235 -7.83738511109868
lclavicle -5.099771272830738E-15 5.417920222892148E-15
lhumerus -25.51891678491519 -2.9628796661398376 80.97446702389597
lradius 37.83560324218971
lwrist -38.16288382778647
lhand -8.587792398498886 14.950732789537932
lfingers 7.030721781933347
lthumb 16.97222831438451 79.22273437486751
rfemur -18.015258579815345 0.21051136256362746 23.18364516167624
rtibia 68.42900659835914
rfoot 6.418665931737124 -3.045347136729675
rtoes 13.02515965267141
lfemur 11.945262057276823 -2.6089066587670455 -31.00380368796101
ltibia 19.428471171073564
lfoot -19.502093774518467 0.40034187583980785
ltoes -0.21603800527037986
